<svg xmlns="http://www.w3.org/2000/svg" viewBox="0 0 904.82 365.93"><defs><style>.cls-1{fill:#182952;}.cls-2{fill:none;stroke:#211915;stroke-miterlimit:10;}.cls-3{fill:#fff;}.cls-4{font-size:137.49px;font-family:Industry-Demi, Industry;font-weight:300;}.cls-5{letter-spacing:-0.02em;}.cls-6{letter-spacing:-0.02em;}</style></defs><g id="Capa_2" data-name="Capa 2"><g id="Capa_1-2" data-name="Capa 1"><polygon class="cls-1" points="138.65 54.32 138.65 165.38 246.34 86.83 246.34 0.81 138.65 54.32"/><polygon class="cls-1" points="138.65 191.8 138.65 363.12 201.63 191.8 138.65 191.8"/><polygon class="cls-1" points="45.2 191.8 108.19 363.12 108.19 191.8 45.2 191.8"/><polygon class="cls-1" points="0.5 86.83 108.19 165.38 108.19 54.32 0.5 0.81 0.5 86.83"/><polygon class="cls-2" points="138.65 54.32 246.34 0.81 246.34 86.83 138.65 165.38 138.65 54.32"/><polygon class="cls-2" points="108.19 54.32 0.5 0.81 0.5 86.83 108.19 165.38 108.19 54.32"/><polygon class="cls-2" points="138.65 191.8 138.65 363.12 201.63 191.8 138.65 191.8"/><polygon class="cls-2" points="108.19 191.8 108.19 363.12 45.2 191.8 108.19 191.8"/><polygon class="cls-3" points="242.78 40.19 242.78 7.54 209.38 23.86 239.43 12.68 242.78 40.19"/><polygon class="cls-3" points="4.23 40.19 4.23 7.54 37.63 23.86 7.58 12.68 4.23 40.19"/><polygon class="cls-3" points="101.47 333.92 49.89 194.35 79.79 196.58 53.44 197.52 101.47 333.92"/><polygon class="cls-3" points="145.56 333.92 197.15 194.35 167.24 196.58 193.59 197.52 145.56 333.92"/><text class="cls-4" transform="translate(285.55 202.66) scale(1 1.02)"><tspan class="cls-5">E . S </tspan><tspan x="281.99" y="0">.</tspan></text><text class="cls-4" transform="translate(606.73 202.66) scale(1 1.02)"> </text><text class="cls-4" transform="translate(637.39 202.66) scale(1 1.02)">A</text><text class="cls-4" transform="translate(722.5 202.66) scale(1 1.02)"><tspan class="cls-6" xml:space="preserve"> .</tspan><tspan x="60.08" y="0"> </tspan></text><text class="cls-4" transform="translate(818.75 202.66) scale(1 1.02)">C</text></g></g></svg>